<?xml version="1.0" standalone="no"?>
<!DOCTYPE svg PUBLIC "-//W3C//DTD SVG 20010904//EN"
 "http://www.w3.org/TR/2001/REC-SVG-20010904/DTD/svg10.dtd">
<svg version="1.0" xmlns="http://www.w3.org/2000/svg"
 width="3464.000000pt" height="956.000000pt" viewBox="0 0 3464.000000 956.000000"
 preserveAspectRatio="xMidYMid meet">

<g transform="translate(0.000000,956.000000) scale(0.100000,-0.100000)"
fill="#000000" stroke="none">
<path d="M28340 9350 c-191 -34 -354 -176 -410 -358 -20 -63 -20 -101 -20
-3476 0 -2328 3 -3438 11 -3496 58 -469 270 -883 625 -1219 358 -339 755 -520
1229 -561 167 -14 1538 -13 1607 1 143 30 288 138 355 265 64 120 63 101 63
1046 0 588 -3 874 -11 910 -28 134 -146 291 -264 350 -117 60 -127 61 -557 66
l-398 4 -2 3031 -3 3032 -23 60 c-48 127 -137 229 -253 290 -125 66 -111 65
-1054 64 -467 -1 -870 -5 -895 -9z m1710 -3755 l0 -3245 615 0 615 0 0 -801 0
-800 -752 3 c-671 4 -763 6 -848 22 -303 57 -561 194 -787 417 -255 252 -399
527 -448 856 -13 91 -15 498 -15 3448 l0 3345 810 0 810 0 0 -3245z"/>
<path d="M18590 9334 c-173 -37 -313 -157 -381 -329 l-24 -60 -5 -1380 -5
-1380 -42 77 c-102 188 -243 370 -413 531 -326 310 -677 481 -1115 543 -124
18 -247 19 -2570 19 -1906 0 -2451 -3 -2492 -12 -177 -42 -331 -183 -383 -352
-19 -61 -20 -95 -20 -956 0 -863 1 -895 20 -956 11 -35 33 -86 49 -114 l28
-49 -33 -61 c-68 -126 -64 -31 -64 -1468 0 -1412 -1 -1382 56 -1617 134 -546
548 -1060 1070 -1327 180 -92 366 -151 599 -190 104 -17 237 -18 2595 -18
l2485 0 65 23 c79 27 155 77 216 141 l45 48 62 -62 c36 -36 89 -76 125 -94
129 -65 -52 -61 2593 -61 1561 0 2443 4 2510 10 315 31 610 129 858 283 274
170 548 449 714 726 l57 94 0 -324 c0 -254 4 -338 15 -388 44 -187 199 -342
386 -386 95 -22 1752 -22 1847 0 186 44 339 193 388 380 11 41 14 601 14 3165
0 2770 -2 3122 -15 3175 -14 53 -14 65 0 120 13 53 15 183 15 944 l0 882 -25
76 c-61 182 -204 309 -390 348 -103 22 -1716 22 -1818 0 -198 -42 -356 -194
-402 -386 -22 -96 -22 -1762 0 -1858 14 -58 14 -72 0 -132 -12 -54 -15 -137
-15 -391 l0 -322 -58 95 c-84 137 -171 249 -297 378 -343 352 -694 539 -1157
613 -130 21 -160 22 -1490 25 l-1358 4 0 762 c0 644 -3 772 -15 826 -46 193
-204 344 -402 386 -99 21 -1726 20 -1823 -1z m1720 -1504 l0 -1000 1638 -3
1637 -3 95 -22 c305 -70 531 -196 754 -418 267 -267 413 -567 446 -919 14
-152 14 -3206 0 -3346 -35 -346 -168 -627 -425 -897 -224 -236 -500 -387 -815
-448 -90 -18 -214 -19 -2517 -22 l-2423 -2 0 4040 0 4040 805 0 805 0 0 -1000z
m7010 190 l0 -810 -805 0 -805 0 0 810 0 810 805 0 805 0 0 -810z m-10790
-1200 c358 -56 626 -194 876 -451 238 -246 372 -507 419 -821 13 -84 15 -425
15 -2448 l0 -2350 -2342 0 c-1488 0 -2384 4 -2457 10 -214 19 -373 64 -549
155 -141 73 -248 152 -367 270 -207 205 -336 417 -410 670 -55 192 -55 181
-55 1515 l0 1230 2290 0 2290 0 0 315 0 315 -2290 0 -2290 0 0 800 0 800 2403
0 c1570 0 2425 -4 2467 -10z m10790 -3030 l0 -3040 -805 0 -805 0 0 3040 0
3040 805 0 805 0 0 -3040z"/>
<path d="M20310 3790 l0 -1440 1485 0 1485 0 0 1440 0 1440 -1485 0 -1485 0 0
-1440z m2450 5 l0 -915 -965 0 -965 0 0 915 0 915 965 0 965 0 0 -915z"/>
<path d="M13270 2770 l0 -420 1483 2 1482 3 3 418 2 417 -1485 0 -1485 0 0
-420z"/>
<path d="M2806 8805 c-132 -37 -264 -141 -328 -261 -63 -116 -58 205 -58
-4022 l0 -3853 25 -76 c60 -179 198 -306 377 -348 95 -22 1772 -22 1867 0 173
41 304 161 380 349 15 37 16 207 21 1912 l5 1872 1450 -1721 c798 -946 1559
-1848 1692 -2006 258 -306 295 -339 428 -392 l60 -24 915 -3 c652 -2 932 0
975 8 77 15 187 68 246 119 58 51 115 136 149 221 l25 65 3 3853 c2 3388 0
3861 -13 3918 -44 189 -191 339 -382 389 -87 23 -1821 22 -1908 0 -170 -45
-301 -166 -364 -339 l-26 -71 -5 -1844 -5 -1845 -1675 1989 c-1800 2137 -1713
2038 -1857 2096 l-58 24 -945 2 c-772 1 -954 -1 -994 -12z m3940 -3022 l2119
-2516 3 2516 2 2517 825 0 825 0 0 -3775 0 -3775 -842 0 -843 0 -2130 2525
-2130 2526 -3 -2526 -2 -2525 -815 0 -815 0 0 3775 0 3775 843 0 843 0 2120
-2517z"/>
</g>
</svg>
